<svg xmlns="http://www.w3.org/2000/svg" viewBox="0 0 250 64" aria-hidden="true">
  <defs>
    <linearGradient id="g" x1="0" x2="1" y1="0" y2="1">
      <stop offset="0%" stop-color="#8be9fd"/>
      <stop offset="35%" stop-color="#7aa2ff"/>
      <stop offset="65%" stop-color="#c39bff"/>
      <stop offset="100%" stop-color="#ffd38f"/>
    </linearGradient>
    <filter id="s" x="-50%" y="-50%" width="200%" height="200%">
      <feGaussianBlur stdDeviation="0.25" result="b"/>
      <feMerge><feMergeNode in="b"/><feMergeNode in="SourceGraphic"/></feMerge>
    </filter>
  </defs>

  <!-- Chat bubble icon (flipped RTL, scaled, closer to text) -->
  <g transform="translate(4,8) scale(1.8)">
    <g transform="scale(-1,1) translate(-24,0)">
      <path d="M3 4.5C3 3.67 3.67 3 4.5 3h15c.83 0 1.5.67 1.5 1.5v9c0 .83-.67 1.5-1.5 1.5H7.5L4 18V4.5z"
            fill="#0b1220"/>
      <path d="M3 4.5C3 3.67 3.67 3 4.5 3h15c.83 0 1.5.67 1.5 1.5v9c0 .83-.67 1.5-1.5 1.5H7.5L4 18V4.5z"
            fill="none" stroke="url(#g)" stroke-width="0.9" stroke-linejoin="round" stroke-linecap="round" filter="url(#s)" />
      <rect x="6.2" y="6.25" rx="0.9" ry="0.9" width="11.6" height="1.6" fill="#0f1724"/>
      <rect x="6.2" y="9.2" rx="0.9" ry="0.9" width="9.2" height="1.6" fill="#0f1724"/>
      <rect x="6.2" y="12.15" rx="0.9" ry="0.9" width="11.6" height="1.6" fill="#0f1724"/>
      <rect x="6.2" y="6.25" rx="0.9" ry="0.9" width="11.6" height="1.6" fill="none" stroke="url(#g)" stroke-width="0.35" />
      <rect x="6.2" y="9.2" rx="0.9" ry="0.9" width="9.2" height="1.6" fill="none" stroke="url(#g)" stroke-width="0.35" />
      <rect x="6.2" y="12.15" rx="0.9" ry="0.9" width="11.6" height="1.6" fill="none" stroke="url(#g)" stroke-width="0.35" />
    </g>
  </g>

  <!-- HelpBase Text (moved closer to icon) -->
  <text x="50" y="43" fill="white"
        font-family="Poppins, Inter, Arial, sans-serif"
        font-weight="700"
        font-size="38"
        letter-spacing="0.5">HelpBase</text>
</svg>
